<svg width="10" height="16" viewBox="0 0 10 16" fill="none" xmlns="http://www.w3.org/2000/svg">
<path d="M1.82187 0.306651C1.62345 0.10823 1.37091 0 1.07328 0C0.478019 -7.69634e-08 1.51383e-06 0.468996 1.51383e-06 1.06426C1.51383e-06 1.36189 0.126273 1.63247 0.333713 1.83991L6.64711 8.00904L0.333713 14.16C0.126265 14.3675 7.69634e-07 14.6471 0 14.9358C0 15.531 0.478019 16 1.07328 16C1.37091 16 1.62345 15.8917 1.82187 15.6933L8.8388 8.83878C9.09132 8.60428 9.20853 8.31566 9.21754 7.99996C9.21754 7.68433 9.09132 7.41374 8.8388 7.17022L1.82187 0.306651Z" fill="#959595" fill-opacity="0.6"/>
</svg>
