<?xml version="1.0" encoding="utf-8"?>
<!-- Generator: Adobe Illustrator 24.0.2, SVG Export Plug-In . SVG Version: 6.00 Build 0)  -->
<svg version="1.1" id="Layer_1" xmlns="http://www.w3.org/2000/svg" xmlns:xlink="http://www.w3.org/1999/xlink" x="0px" y="0px"
	 viewBox="0 0 28 25" style="enable-background:new 0 0 28 25;" xml:space="preserve">
<style type="text/css">
	.st0{fill:#252525;}
</style>
<path class="st0" d="M0,3.8v12.3C0,18.2,1.7,20,3.8,20H16l7.2,4.9c0.4,0.3,0.9,0,0.9-0.5V20c2.1,0,3.8-1.7,3.8-3.8V3.8
	C28,1.7,26.3,0,24.2,0H3.8C1.7,0,0,1.7,0,3.8z M1.6,3.8c0-1.2,1-2.2,2.2-2.2h20.4c1.2,0,2.2,1,2.2,2.2v12.3c0,1.2-1,2.2-2.2,2.2
	h-1.6v4.1l-5.9-4.1H3.8c-1.2,0-2.2-1-2.2-2.2C1.6,16.1,1.6,3.8,1.6,3.8z"/>
<path class="st0" d="M20.5,7.4h-13V5.7h13V7.4z"/>
<path class="st0" d="M20.5,10.8h-13V9.2h13V10.8z"/>
<path class="st0" d="M20.5,14.3h-13v-1.6h13V14.3z"/>
</svg>
