<?xml version="1.0" encoding="utf-8"?>
<!-- Generator: Adobe Illustrator 24.0.2, SVG Export Plug-In . SVG Version: 6.00 Build 0)  -->
<svg version="1.1" id="Layer_1" xmlns="http://www.w3.org/2000/svg" xmlns:xlink="http://www.w3.org/1999/xlink" x="0px" y="0px"
	 viewBox="0 0 34 28" style="enable-background:new 0 0 34 28;" xml:space="preserve">
<style type="text/css">
	.st0{fill:#252525;}
</style>
<path class="st0" d="M3.8,13.4C3.8,13.4,3.8,13.5,3.8,13.4C1.6,14.1,0.1,16,0,18.3c0,0,0,0,0,0l-0.2,9c0,0.2,0.1,0.4,0.2,0.5
	C0.2,27.9,0.3,28,0.5,28h20.9c0.4,0,0.7-0.3,0.7-0.7s-0.3-0.7-0.7-0.7h-2.2v-5.1c0-0.4-0.3-0.7-0.7-0.7c-0.4,0-0.7,0.3-0.7,0.7v5.1
	h-2.2l0.1-8.1c0.1-1.6,1.3-3.1,2.8-3.6l3.1-0.7h0.1c1.4,1.2,3.5,1.3,4.9,0h0.1l3.1,0.7c1.5,0.5,2.7,2,2.8,3.6l0.1,8.1h-2.2v-5.1
	c0-0.4-0.3-0.7-0.7-0.7c-0.4,0-0.7,0.3-0.7,0.7v5.1h-2c-0.4,0-0.7,0.3-0.7,0.7S27,28,27.3,28h6.2c0.2,0,0.4-0.1,0.5-0.2
	c0.1-0.1,0.2-0.3,0.2-0.5L34,18.6c0,0,0,0,0,0c-0.1-1.9-1.2-3.6-2.9-4.4l0.5-1.4c0.3-0.7,0-1.6-0.7-1.9L30,10.4
	c-0.6-0.3-1.3-0.2-1.8,0.2c-0.1,0.1-0.1,0.1-0.2,0c-0.2-0.1-0.4-0.2-0.7-0.3c0,0,0.1-0.1,0.1-0.1c0.9-0.9,1.3-2,1.3-3.2V5.8
	c0.1,0,0.2-0.1,0.3-0.2c0.1-0.1,0.2-0.3,0.2-0.5c0-0.1-0.1-1.3-0.8-2.5C27.6,0.9,26.1,0,24.3,0c-2.5,0-3.8,1.4-4.5,2.6
	c-0.7,1.2-0.7,2.5-0.8,2.5c0,0.4,0.2,0.7,0.6,0.7c0,0,0,0,0.1,0v1.3c0,0,0,0,0,0c0,1.2,0.5,2.3,1.3,3.1c-0.7,0.1-1.5,0.3-2.4,0.4
	c-0.2,0-3,0.4-6.2,1.3l-0.2-1c0.2-0.2,0.5-0.4,0.7-0.6c0.9-0.9,1.3-2,1.3-3.2V6.3c0,0,0,0,0,0c0.2,0,0.4-0.1,0.5-0.2
	c0.1-0.1,0.2-0.3,0.2-0.5c0-0.1-0.1-1.4-0.7-2.7c-0.9-1.8-2.4-2.8-4.4-2.8c-2.6,0-3.9,1.5-4.5,2.8C4.7,4.3,4.7,5.6,4.7,5.6
	c0,0.3,0.2,0.6,0.5,0.6v0.8c0,0,0,0,0,0c0.1,1.6,0.9,2.9,2,3.7L7,12.7L3.8,13.4z M1.3,18.3c0.1-1.6,1.2-3.1,2.8-3.6L7.2,14h0.1
	c1.5,1.5,4.1,1.1,5.1-0.7c2.5-0.7,4.9-1.1,5.9-1.2l0.5,1.6l-0.5,0.1c0,0,0,0,0,0c-2.1,0.6-3.6,2.6-3.8,4.8c0,0,0,0,0,0l-0.1,8.1H4.8
	v-5.1c0-0.4-0.3-0.7-0.7-0.7s-0.7,0.3-0.7,0.7v5.1H1.2L1.3,18.3z M24.5,11.6c0.3,0,0.6-0.1,0.9-0.2l0.3,1.9c-0.9,0.7-2.1,0.6-2.9,0
	l0.2-1.9C23.5,11.6,24,11.6,24.5,11.6z M28,12.1c0.4,0,0.8-0.2,1.1-0.4c0.1-0.1,0.2,0,0.3,0l0.9,0.4c0.1,0.1,0.1,0.1,0.1,0.2
	c0,0,0,0,0,0l-0.5,1.4L27,13c0,0,0,0,0,0l-0.2-1.3c0.2,0.1,0.4,0.2,0.6,0.2C27.6,12,27.8,12.1,28,12.1z M24.9,10.2
	c-0.2,0-0.4,0.1-0.6,0.1c-1.7,0-3.1-1.5-3.2-3.2V5.8c0,0,0,0,0-0.1c0.6-0.1,1.2-0.4,1.7-0.9c0.8,0.7,2,1,3,1h1.6v1.3
	C27.4,8.6,26.3,9.9,24.9,10.2z M21,3.2c0.7-1.2,1.8-1.9,3.3-1.9c1.3,0,2.3,0.6,3,1.9c0.2,0.5,0.4,0.9,0.5,1.3c-0.7,0-1.4,0-2.1,0
	c-0.4,0-0.8-0.1-1.2-0.2c-0.8-0.3-1.1-0.8-1.2-0.8c-0.3-0.4-0.9-0.5-1.2,0c-0.3,0.6-0.9,0.9-1.6,1C20.6,4.1,20.8,3.6,21,3.2z
	 M21.7,11.4L21.5,13l-1.4,0.3l-0.5-1.5C20.4,11.7,21.1,11.5,21.7,11.4z M6.5,3.5c0.6-1.4,1.7-2,3.2-2c1.5,0,2.6,0.7,3.2,2
	c0.2,0.5,0.4,1,0.5,1.4c-1-0.2-2.1-0.6-2.7-1.5c-0.2-0.3-0.3-0.5-0.7-0.5C9.8,2.8,9.6,3,9.5,3.2c0,0-0.3,0.7-0.7,1.1
	c-0.1-0.5-0.6-0.8-1-0.5C7.6,3.9,7.4,4.1,7.3,4.2C6.9,4.5,6.5,4.7,6.1,4.9C6.2,4.5,6.3,4,6.5,3.5z M6.5,7.1v-1
	c0.4-0.1,0.7-0.3,1-0.5c0.1,0.2,0.3,0.2,0.5,0.2c0.8,0,1.6-0.5,2.1-1.2c0.8,0.8,1.9,1.2,2.7,1.4v1c0,1.7-1.5,3.2-3.2,3.2
	C8,10.3,6.6,8.8,6.5,7.1z M9.5,11.6c0.5,0,1,0,1.4-0.2l0.3,1.2c-0.6,1.1-2,1.2-2.9,0.5l0.2-1.7C8.8,11.5,9.2,11.6,9.5,11.6z"/>
</svg>
