<?xml version="1.0" encoding="utf-8"?>
<!-- Generator: Adobe Illustrator 24.0.2, SVG Export Plug-In . SVG Version: 6.00 Build 0)  -->
<svg version="1.1" id="Layer_1" xmlns="http://www.w3.org/2000/svg" xmlns:xlink="http://www.w3.org/1999/xlink" x="0px" y="0px"
	 viewBox="0 0 26 26" style="enable-background:new 0 0 26 26;" xml:space="preserve">
<style type="text/css">
	.st0{fill:#252525;}
</style>
<path class="st0" d="M25.8,12L15.7,1.2c-1.5-1.6-3.8-1.6-5.3,0L0.2,12c-0.3,0.3-0.3,0.9,0,1.2s0.8,0.3,1.1,0L2,12.5v11
	C2,24.9,3,26,4.3,26h5.4h6.5h5.4c1.3,0,2.3-1.1,2.3-2.5v-11l0.6,0.7c0.2,0.2,0.4,0.3,0.6,0.3s0.4-0.1,0.6-0.3
	C26.1,12.8,26.1,12.3,25.8,12z M10.6,24.3v-6.8c0-0.5,0.4-1,0.9-1h3c0.5,0,0.9,0.4,0.9,1v6.8H10.6z M22.3,23.5
	c0,0.4-0.3,0.8-0.7,0.8H17v-6.8c0-1.5-1.1-2.7-2.5-2.7h-3C10.1,14.8,9,16,9,17.5v6.8H4.4c-0.4,0-0.7-0.3-0.7-0.8V10.8l7.8-8.4
	c0.8-0.9,2.2-0.9,3,0l7.8,8.4V23.5z"/>
</svg>
