<?xml version="1.0" encoding="utf-8"?>
<!-- Generator: Adobe Illustrator 24.0.2, SVG Export Plug-In . SVG Version: 6.00 Build 0)  -->
<svg version="1.1" id="Layer_1" xmlns="http://www.w3.org/2000/svg" xmlns:xlink="http://www.w3.org/1999/xlink" x="0px" y="0px"
	 viewBox="0 0 126 32" style="enable-background:new 0 0 126 32;" xml:space="preserve">
<style type="text/css">
	.st0{clip-path:url(#SVGID_1_);fill:url(#SVGID_2_);}
</style>
<g>
	<defs>
		<path id="SVGID_54_" d="M37.6,14.1c3,0,4.8,1.9,5.2,5H31.6C32.2,16.2,34.1,14.1,37.6,14.1 M26.5,20.9C26.5,27.1,31,32,37.7,32
			c4.8,0,8.6-2.6,9.8-6.4h-5.5c-0.8,1.3-2.2,1.9-4.3,1.9c-3.8,0-5.8-2.3-6.3-5.3h16.2h0c0.1-0.5,0.1-0.9,0.1-1.7
			c0-6.4-4.4-10.8-10.4-10.8C31,9.8,26.5,14.5,26.5,20.9 M60.1,14.1c3,0,4.8,1.9,5.2,5H54.2C54.7,16.2,56.7,14.1,60.1,14.1
			 M49.1,20.9c0,6.2,4.5,11.1,11.2,11.1c4.8,0,8.6-2.6,9.8-6.4h-5.5c-0.8,1.3-2.2,1.9-4.3,1.9c-3.8,0-5.8-2.3-6.3-5.3h16.2h0
			c0.1-0.5,0.1-0.9,0.1-1.7c0-6.4-4.4-10.8-10.4-10.8C53.5,9.8,49.1,14.5,49.1,20.9 M104.2,25.1c2-0.1,3.6-1.7,3.6-3.7
			c0-1.4-0.8-2.6-2-3.2c1.4-0.6,3-1,4.5-1c3.9,0,7.4,2.3,9.5,4c-1.8,3.4-5.4,5.8-9.5,5.8C108,27,105.9,26.3,104.2,25.1 M110.3,5.7
			c5.8,0,10.5,4.6,10.7,10.3c-1.1-0.8-2.4-1.5-3.9-2.1l1.2-3.4L116,9.6l-1.2,3.4c-1-0.3-2.1-0.5-3.3-0.6V8.6h-2.5v3.7
			c-1.1,0.1-2.2,0.3-3.3,0.6l-1.2-3.4l-2.3,0.8l1.2,3.4c-1.4,0.6-2.8,1.4-3.9,2.1C99.8,10.2,104.5,5.7,110.3,5.7 M94.6,16.3
			c0,8.6,7,15.6,15.7,15.6c3.4,0,6.6-1.1,9.1-2.9l3,2.9l3.6-3.6l-3-2.9c1.9-2.6,3-5.7,3-9.1c0-8.6-7-15.6-15.7-15.6
			S94.6,7.7,94.6,16.3 M1.2,10c0,4.5,2.7,7.4,8.5,8.5l5,1c3.4,0.6,4.4,2.1,4.4,3.7c0,2.5-2.2,4.1-5.9,4.1c-4.5,0-7.4-2.2-8-5.7H0
			C0.5,28,5.5,32,12.9,32c7,0,11.7-3.8,11.7-9.4c0-4.8-3.3-7.1-9-8.3l-3.8-0.8c-3.1-0.6-4.9-1.7-4.9-4c0-2.7,2.3-4.4,6-4.4
			c4.1,0,6.1,2,6.6,5h5.3C24,3,17.8,0.7,12.5,0.7C5.7,0.7,1.2,4.4,1.2,10 M72.9,0v31.3h5.1v-4.7l3.8-3.9l6.5,8.6h6.6l-9.6-12.2
			l8.4-8.7h-6.5L77.9,20V0H72.9z"/>
	</defs>
	<clipPath id="SVGID_1_">
		<use xlink:href="#SVGID_54_"  style="overflow:visible;"/>
	</clipPath>
	
		<linearGradient id="SVGID_2_" gradientUnits="userSpaceOnUse" x1="-331.1862" y1="322.4938" x2="-330.7487" y2="322.4938" gradientTransform="matrix(161.7994 -161.7994 -161.7994 -161.7994 105791.8203 -1354.2216)">
		<stop  offset="0" style="stop-color:#2E398E"/>
		<stop  offset="4.546960e-04" style="stop-color:#2E398E"/>
		<stop  offset="0.1092" style="stop-color:#294795"/>
		<stop  offset="1" style="stop-color:#00B3CF"/>
	</linearGradient>
	<polygon class="st0" points="-16.1,16 63,-62.7 142.1,16 63,94.7 	"/>
</g>
</svg>
