<?xml version="1.0" encoding="utf-8"?>
<!-- Generator: Adobe Illustrator 24.0.2, SVG Export Plug-In . SVG Version: 6.00 Build 0)  -->
<svg version="1.1" id="Layer_1" xmlns="http://www.w3.org/2000/svg" xmlns:xlink="http://www.w3.org/1999/xlink" x="0px" y="0px"
	 viewBox="0 0 26 26" style="enable-background:new 0 0 26 26;" xml:space="preserve">
<style type="text/css">
	.st0{fill:#252525;}
</style>
<path class="st0" d="M13,7.3c-3.1,0-5.7,2.5-5.7,5.7s2.5,5.7,5.7,5.7c0.6,0,1.2-0.1,1.7-0.3c0.5-0.2,0.8-0.7,0.6-1.2
	s-0.7-0.8-1.2-0.6c-0.4,0.1-0.7,0.2-1.1,0.2c-2.1,0-3.7-1.7-3.7-3.7S11,9.4,13,9.4s3.7,1.7,3.7,3.7c0,0.4-0.1,0.7-0.1,1
	c-0.2,0.5,0.1,1.1,0.7,1.2c0.5,0.2,1.1-0.1,1.2-0.7c0.2-0.5,0.2-1.1,0.2-1.6C18.7,9.9,16.1,7.3,13,7.3z"/>
<path class="st0" d="M23.1,9.6h-0.5c-0.2,0-0.5-0.1-0.6-0.4c0-0.2,0-0.5,0.2-0.6l0.4-0.4c1.1-1.1,1.1-2.9,0-4l-0.7-0.7
	c-0.5-0.5-1.3-0.8-2-0.8s-1.5,0.3-2,0.8l-0.4,0.4C17.3,3.9,17.2,4,17,4c-0.1,0-0.2,0-0.3-0.1c-0.2-0.1-0.4-0.3-0.4-0.6V2.9
	C16.3,1.3,15,0,13.4,0h-1c-1.6,0-2.9,1.3-2.9,2.9v0.5c0,0.2-0.1,0.5-0.4,0.6c0.1,0,0,0-0.1,0C8.8,4,8.7,3.9,8.6,3.8L8.2,3.4
	C7.7,2.9,7,2.6,6.2,2.6s-1.5,0.3-2,0.8L3.4,4.2c-1.1,1.1-1.1,2.9,0,4l0.4,0.4C4,8.7,4,9,3.9,9.3C3.8,9.5,3.6,9.6,3.4,9.6H2.9
	C1.3,9.6,0,10.9,0,12.5v1c0,1.6,1.3,2.9,2.9,2.9h0.5c0.2,0,0.5,0.1,0.6,0.4c0,0.2,0,0.5-0.2,0.6l-0.4,0.4c-0.5,0.5-0.8,1.3-0.8,2
	s0.3,1.5,0.8,2l0.7,0.7c0.5,0.5,1.3,0.8,2,0.8c0.8,0,1.5-0.3,2-0.8l0.4-0.4C8.7,22.1,8.8,22,9,22c0.1,0,0.2,0,0.3,0.1
	c0.2,0.1,0.4,0.3,0.4,0.6v0.5c0,1.6,1.3,2.9,2.9,2.9h1c1.6,0,2.9-1.3,2.9-2.9v-0.5c0-0.2,0.1-0.5,0.4-0.6c0.1,0,0.2,0,0.2,0
	c0.2,0,0.3,0.1,0.4,0.2l0.4,0.4c0.5,0.5,1.3,0.8,2,0.8s1.5-0.3,2-0.8l0.7-0.7c0.5-0.5,0.8-1.3,0.8-2s-0.3-1.5-0.8-2l-0.4-0.4
	C22,17.3,22,17,22.1,16.7c0.1-0.2,0.3-0.4,0.6-0.4h0.5c1.6,0,2.9-1.3,2.9-2.9v-1C26,10.9,24.7,9.6,23.1,9.6z M24.2,13.5
	c0,0.6-0.5,1-1,1h-0.5c-1,0-1.9,0.6-2.2,1.5l0,0c-0.5,1-0.3,2,0.4,2.7l0.4,0.4c0.2,0.2,0.3,0.5,0.3,0.7c0,0.3-0.1,0.5-0.3,0.7
	l-0.7,0.7c-0.2,0.2-0.5,0.3-0.7,0.3c-0.3,0-0.5-0.1-0.7-0.3l-0.4-0.4C18,20.2,17,20,16.1,20.4l0,0c-0.9,0.4-1.5,1.3-1.5,2.2v0.5
	c0,0.6-0.5,1-1,1h-1c-0.6,0-1-0.5-1-1v-0.5c0-1-0.6-1.9-1.5-2.2l0,0c-0.3-0.1-0.6-0.2-0.9-0.2c-0.6,0-1.2,0.2-1.7,0.7l-0.4,0.4
	c-0.2,0.2-0.5,0.3-0.7,0.3c-0.3,0-0.5-0.1-0.7-0.3L5,20.6c-0.2-0.2-0.3-0.5-0.3-0.7s0.1-0.5,0.3-0.7l0.4-0.4C5.8,18,6,17,5.6,16.1
	l0,0c-0.4-0.9-1.3-1.5-2.2-1.5H2.9c-0.6,0-1-0.5-1-1v-1c0-0.6,0.5-1,1-1h0.5c1,0,1.9-0.6,2.2-1.5l0,0C6,9,5.8,8,5.1,7.3L4.7,6.9
	c-0.4-0.4-0.4-1.1,0-1.5l0.7-0.7c0.2-0.2,0.5-0.3,0.7-0.3c0.3,0,0.5,0.1,0.7,0.3l0.4,0.4C8,5.8,9,6,9.9,5.6l0,0
	c0.9-0.4,1.5-1.3,1.5-2.2V2.9c0-0.6,0.5-1,1-1h1c0.6,0,1,0.5,1,1v0.5c0,1,0.6,1.9,1.5,2.2l0,0C17,6,18,5.8,18.7,5.1l0.4-0.4
	c0.2-0.2,0.5-0.3,0.7-0.3c0.3,0,0.5,0.1,0.7,0.3l0.7,0.7c0.4,0.4,0.4,1.1,0,1.5l-0.4,0.4C20.2,8,20,9,20.4,9.9l0,0
	c0.4,0.9,1.3,1.5,2.2,1.5h0.5c0.6,0,1,0.5,1,1v1.1H24.2z"/>
</svg>
