<svg width="17" height="16" viewBox="0 0 17 16" fill="none" xmlns="http://www.w3.org/2000/svg">
<path d="M5.43432 15.9883C2.4595 15.9727 0 9.89813 0 6.80619C0 1.75446 3.79075 0.649635 5.25083 0.649635C5.9106 0.649635 6.61332 0.907297 7.23014 1.13763C7.66348 1.29769 8.11244 1.46166 8.36229 1.46166C8.51064 1.46166 8.862 1.32112 9.17432 1.20009C9.83799 0.934625 10.6617 0.610596 11.6221 0.610596H11.626C12.3443 0.610596 14.5149 0.766754 15.8228 2.73045L16.1273 3.19112L15.6861 3.52295C15.0576 3.99924 13.9098 4.86201 13.9098 6.57976C13.9098 8.60982 15.2099 9.39061 15.8345 9.7693C16.1117 9.93327 16.3967 10.105 16.3967 10.4798C16.3967 10.7258 14.4486 15.9688 11.6182 15.9688C10.9272 15.9688 10.4353 15.7619 10.0059 15.5784C9.56862 15.391 9.19384 15.2309 8.5692 15.2309C8.25298 15.2309 7.85478 15.3793 7.43315 15.5394C6.85536 15.7541 6.2034 16 5.46165 16H5.43432V15.9883Z" fill="#9E9E9E"/>
</svg>

<svg width="20" height="20" viewBox="0 0 20 20" fill="none" xmlns="http://www.w3.org/2000/svg">
<path d="M20 10C20 4.47656 15.5234 0 10 0C4.47656 0 0 4.47656 0 10C0 15.5234 4.47656 20 10 20C10.0586 20 10.1172 20 10.1758 19.9961V12.2148H8.02734V9.71094H10.1758V7.86719C10.1758 5.73047 11.4805 4.56641 13.3867 4.56641C14.3008 4.56641 15.0859 4.63281 15.3125 4.66406V6.89844H14C12.9648 6.89844 12.7617 7.39062 12.7617 8.11328V9.70703H15.2422L14.918 12.2109H12.7617V19.6133C16.9414 18.4141 20 14.5664 20 10Z" fill="#9E9E9E"/>
</svg>

<svg width="20" height="20" viewBox="0 0 20 20" fill="none" xmlns="http://www.w3.org/2000/svg">
<path d="M10.9 9.1V11.3518H16.2118C15.6718 14.5035 13.1518 16.7518 10 16.7518C6.30824 16.7518 3.24824 13.6918 3.24824 10C3.24824 6.30824 6.30824 3.25176 10 3.25176C11.8882 3.25176 13.5118 4.06 14.68 5.32353L16.3 3.70353C14.68 2.08 12.52 1 10 1C5.05176 1 1 5.05176 1 10C1 14.9482 5.05176 19 10 19C14.9482 19 18.5518 14.9482 18.5518 10V9.1H10.9Z" fill="white" stroke="white"/>
</svg>

<svg width="13" height="22" viewBox="0 0 13 22" fill="none" xmlns="http://www.w3.org/2000/svg">
<path d="M9.76807 0H2.33717C1.07466 0 0 1.03098 0 2.29349V19.7109C0 20.9734 1.05282 22 2.31533 22L9.75933 21.9913C11.0218 21.9913 12.0572 20.9647 12.0572 19.7021L12.0659 2.29349C12.0659 1.02661 11.0393 0 9.76807 0ZM4.98014 1.37609H7.13821C7.32605 1.37609 7.48332 1.52899 7.48332 1.72121C7.48332 1.91342 7.33042 2.06632 7.13821 2.06632H4.98014C4.7923 2.06632 4.63503 1.91342 4.63503 1.72121C4.63503 1.52899 4.78793 1.37609 4.98014 1.37609ZM3.68268 1.48531C3.80937 1.35862 4.04091 1.35425 4.16759 1.48531C4.23312 1.55083 4.26807 1.6382 4.26807 1.72994C4.26807 1.81732 4.22875 1.90905 4.16759 1.97021C4.10207 2.03574 4.01469 2.07069 3.92732 2.07069C3.83558 2.07069 3.74821 2.03137 3.68268 1.97021C3.61716 1.90469 3.58221 1.81732 3.58221 1.72994C3.58221 1.6382 3.62153 1.54647 3.68268 1.48531ZM5.98928 21.3185C5.42137 21.3185 4.96267 20.8554 4.96267 20.2919C4.96267 19.724 5.42573 19.2653 5.98928 19.2653C6.55282 19.2653 7.01589 19.7284 7.01589 20.2919C7.01589 20.8554 6.55719 21.3185 5.98928 21.3185ZM11 18.562H1.20135V3.26767H11V18.562Z" fill="#9E9E9E"/>
</svg>